<svg width="580" height="580" viewBox="0 0 580 580" fill="none" xmlns="http://www.w3.org/2000/svg">
<rect width="580" height="580" rx="120" fill="#202020"/>
<path fill-rule="evenodd" clip-rule="evenodd" d="M468.86 355.581C472.417 351.177 466.405 346.562 461.99 350.105V350.105C397.581 401.806 311.578 401.623 269.898 349.697V349.697C263.509 341.738 248.31 344.293 251.744 353.905C255.14 363.41 260.059 372.358 266.563 380.461C304.958 428.294 384.064 428.557 443.251 381.049C452.941 373.271 461.496 364.695 468.86 355.581Z" fill="white"/>
<path fill-rule="evenodd" clip-rule="evenodd" d="M311.647 458.219C315.208 455.979 312.02 451.188 308.011 452.462V452.462C255.26 469.23 199.717 442.617 183.951 393.02V393.02C181.631 385.72 171.07 384.235 171.355 391.889C171.627 399.179 172.873 406.524 175.177 413.773C189.7 459.461 240.769 484.007 289.242 468.599C297.326 466.029 304.827 462.511 311.647 458.219Z" fill="white"/>
<path fill-rule="evenodd" clip-rule="evenodd" d="M152.149 235.631C153.126 239.723 158.688 238.243 158.769 234.037V234.037C159.836 178.696 202.881 134.646 254.914 135.649V135.649C262.573 135.797 267.372 126.273 260.032 124.084C253.041 121.999 245.685 120.82 238.08 120.673C190.149 119.749 150.498 160.225 149.517 211.079C149.354 219.56 150.276 227.794 152.149 235.631Z" fill="white"/>
<path fill-rule="evenodd" clip-rule="evenodd" d="M289.5 433C356.05 433 410 368.753 410 289.5C410 210.247 356.05 146 289.5 146C222.95 146 169 210.247 169 289.5C169 368.753 222.95 433 289.5 433ZM289.908 403.863C329.613 403.863 361.8 354.944 361.8 294.599C361.8 234.254 329.613 185.335 289.908 185.335C250.204 185.335 218.017 234.254 218.017 294.599C218.017 354.944 250.204 403.863 289.908 403.863Z" fill="white"/>
</svg>
